<svg xmlns="http://www.w3.org/2000/svg" width="16" height="16" viewBox="0 0 16 16"><g opacity="1"><g transform="matrix(1 0 0 1 1.600000023841858 1.600000023841858)" opacity="1"><path d="M0 11.4 L0 1.4 C0 0.6266 0.6273 0.0002 1.4 0 L5.6 0 C5.9314 0 6.2 0.2686 6.2 0.6 C6.2 0.9314 5.9314 1.2 5.6 1.2 L1.4 1.2 C1.2894 1.2002 1.2 1.29 1.2 1.4 L1.2 11.4 C1.2 11.5105 1.2895 11.6 1.4 11.6 L11.4 11.6 C11.5105 11.6 11.6 11.5105 11.6 11.4 L11.6 7.2 C11.6001 6.8687 11.8687 6.6 12.2 6.6 C12.5313 6.6 12.7999 6.8687 12.8 7.2 L12.8 11.4 C12.8 12.1732 12.1732 12.8 11.4 12.8 L1.4 12.8 C0.6268 12.8 0 12.1732 0 11.4 Z" fill="rgb(255,255,255)" fill-opacity="1" fill-rule="nonzero"/><path d="M8.1027 0.0195 C7.7713 0.0195 7.5027 0.2881 7.5027 0.6195 C7.5027 0.9508 7.7713 1.2194 8.1027 1.2194 L10.6527 1.2194 L5.8792 5.9929 C5.6449 6.2272 5.6449 6.6072 5.8792 6.8415 C6.1135 7.0755 6.4934 7.0756 6.7277 6.8415 L11.5023 2.0668 L11.5023 4.619 C11.5023 4.9504 11.7714 5.2195 12.1028 5.2195 C12.434 5.2193 12.7027 4.9508 12.7027 4.6196 L12.7022 1.0194 C12.7022 0.4672 12.2546 0.0195 11.7023 0.0195 L8.1027 0.0195 Z" fill="rgb(255,255,255)" fill-opacity="1" fill-rule="nonzero"/></g></g></svg>