<svg xmlns="http://www.w3.org/2000/svg" width="512" height="512" viewBox="42 42 172 172" class="od-mark" aria-hidden="true" aria-label="OfficeDex · write"><title>OfficeDex agent ready flat ink</title><g fill="#252525"><circle cx="128" cy="128" r="86"></circle></g><g class="od-body" transform="translate(128 128) rotate(0) scale(1 1) translate(-128 -128)"><path id="document-body" d="M96 72H151C154.3 72 157 74.7 157 78V80C157 91 166 100 177 100H178C181.3 100 184 102.7 184 106V162C184 177.5 171.5 190 156 190H97C81.8 190 69.5 177.7 69.5 162.5V100C69.5 84.5 81.4 72 96 72Z" fill="#ffffff"></path><g id="agent-expression" fill="none" stroke="#252525" stroke-linecap="round" class="od-eyes"><path d="M 110 129.52 Q 110 133 110 136.48" stroke-width="11"></path><path d="M 148 129.52 Q 148 133 148 136.48" stroke-width="11"></path></g><g id="status-symbol" transform="translate(175.5 81) rotate(0) scale(1)" opacity="1" class="corner-symbol" data-symbol="pencil"><path d="M -9 5 L 4 -9 L 10 -3 L -3 11 L -11 13 Z" fill="#ffffff"></path><path d="M 1 -6 L 7 0" fill="none" stroke="#ffffff" stroke-width="2" stroke-linecap="round"></path></g></g></svg>